<svg xmlns="http://www.w3.org/2000/svg" viewbox="0 0 292 328" width="292" height="328"><defs></defs><g transform="matrix(1, -0, -0, 1, -144, -125)">
<g transform="matrix(1, 0, 0, 1, 0, 0)">
	<rect class="artboard-bg" fill="none" x="144" y="125" width="292" height="328"/>
	<g class="artboard" transform="matrix(1, 0, 0, 1, 144, 125)">
		<path class="vector-data" d="M126.000000,23.000000C126.000000,23.000000 14.000000,305.000000 14.000000,305.000000 C14.000000,305.000000 99.000000,247.000000 123.000000,277.000000 C147.000000,307.000000 143.000000,298.000000 143.000000,298.000000 C143.000000,298.000000 98.000000,204.000000 126.000000,23.000000 Z" fill="#6E6E6E" stroke="#FFFFFF" stroke-width="15" stroke-dasharray="none" stroke-dashoffset="0" stroke-linecap="butt" stroke-linejoin="miter" stroke-miterlimit="4" />
		<path class="vector-data" d="M160.953578,23.000000C160.953578,23.000000 279.235977,305.000000 279.235977,305.000000 C279.235977,305.000000 189.468085,247.000000 164.121857,277.000000 C138.775629,307.000000 143.000000,298.000000 143.000000,298.000000 C143.000000,298.000000 190.524178,204.000000 160.953578,23.000000 Z" fill="#808080" stroke="#FFFFFF" stroke-width="15" stroke-dasharray="none" stroke-dashoffset="0" stroke-linecap="butt" stroke-linejoin="miter" stroke-miterlimit="4" />
	</g>
</g></g></svg>